<svg t="1683707540980" class="icon" viewBox="0 0 1024 1024" version="1.1" xmlns="http://www.w3.org/2000/svg" p-id="2508" width="200" height="200"><path d="M512 512m-512 0a512 512 0 1 0 1024 0 512 512 0 1 0-1024 0Z" fill="#D51919" p-id="2509"></path><path d="M215.222857 568.612571a35.474286 35.474286 0 0 1 0-50.212571c168.228571-167.826286 441.746286-167.826286 610.633143 0a35.474286 35.474286 0 0 1 0 50.176l-61.293714 60.964571a35.657143 35.657143 0 0 1-50.212572 0.292572 281.782857 281.782857 0 0 0-69.851428-50.541714 35.108571 35.108571 0 0 1-19.382857-31.597715l-0.365715-68.534857a366.482286 366.482286 0 0 0-208.749714-0.109714v68.132571a35.949714 35.949714 0 0 1-19.602286 31.744 269.860571 269.860571 0 0 0-69.558857 50.395429 36.096 36.096 0 0 1-50.541714 0l-61.074286-60.708572z" fill="#FFFFFF" p-id="2510"></path></svg>